<svg xmlns="http://www.w3.org/2000/svg" xmlns:xlink="http://www.w3.org/1999/xlink" viewBox="0 0 40 40"><defs><path id="a" d="M-.1 0H40v36H-.1z"/></defs><clipPath id="b"><use xlink:href="#a" overflow="visible"/></clipPath><g clip-path="url(#b)"><path d="M2.3 28.9c.1-.4 2.4-2.5 3.9-3.1 2-.8 3.7-1.2 5.8-.6 1.6.4 3.8 2 5.2 2.8 1.7 1 3.2 1.1 4.9 1.7 1.2.4 2.9 1.1 3.8 1.9.6.6.7 1.9.4 2.6-.3.8-.8 1-1.7 1-.6 0-1.3-.1-1.8-.2-1.3-.3-2.5-.8-3.7-1.4-1.3-.6-2.7-1.2-4.1-1.4-.4-.1-1-.3-1 .1s.8.4 1.1.5c1.8.5 3.4 1.3 5.1 2 1.3.6 2.7 1.1 4.2 1.1 1.7 0 2.3-.3 2.8-1.8.4-1.4 0-2.9-1.5-3.7-1.1-.6-2.9-1.2-4-1.7l-3.6-1.2s2.1-.4 3.4-1.1c1.2-.7 3.4-2.2 4-2.6.7-.4 1.4-.8 1.8-.7.6 0 .9.3.9 1 0 .2-.5.9-2.3 2-.3.2-2.1 1.2-2.2 1.7.7-.1 4.6-2.7 5-3 .6-.4 1.8-1.4 2.2-1.5.5-.1 1.2.5 1.3.9.1.6-.8 1.6-1.7 2.4-.8.7-3 2.2-3.1 2.7.5.1 3.9-2.7 4.6-3.5.5-.6 1.4-1.8 2.2-1.9.6-.1 1.2.5 1.2 1 0 .8-2.2 3.4-2.5 3.8-.6.7-1.9 1.8-2.2 2.3 0 0-.2.3-.1.3.3.1.5-.1.5-.1.9-.8 1.9-1.7 3-2.9 1.3-1.4 2.3-2.5 3.2-1.7.6.5-.2 2.2-1 3.7-.6 1-1.2 2.1-2.2 3.2-.3.3-.1.2-.1.2s.3 0 .9-.6c1-1 1-1.1 2.2-2.8.3-.4 1.2-1.9 1.2-2 1.5-3.5 2.1-7.1 1.6-10.8C38.5 6.3 27.7-1.7 16.6.3 7.6 1.9.9 9.1 0 18.2c-.3 3.5.1 7.5 1.6 10.7.5 1.8 3.6 5.1 3.6 4.9.1 0 .1 0 0-.2-.3-.6-1.6-2.1-2.1-3.1-.7-1.2-.8-1.6-.8-1.6z" fill="#f48171"/><path d="M8.8 14.7l-8.9 5.1C-.1 8.9 9 0 20 0s20 8.9 20 19.8l-8.9-5.1c-6.9-4.1-15.4-4.1-22.3 0z" fill="#fdba5e"/></g></svg>