<svg xmlns="http://www.w3.org/2000/svg" viewBox="0 0 40 40"><path d="M19.7 40c10.3 0 18.7-7.3 18.7-16.2 0-8.9-8.4-16.2-18.7-16.2C9.4 7.6 1 14.9 1 23.8 1 32.7 9.4 40 19.7 40z" fill="#fff"/><path d="M2.4 29.1c.1-.4 2.4-2.5 3.9-3.2 2-.8 3.7-1.2 5.7-.6 1.6.4 3.8 2 5.2 2.8 1.7 1 3.2 1.1 4.9 1.7 1.2.4 2.9 1.1 3.8 1.9.6.6.7 1.9.4 2.6-.3.8-.8 1-1.7 1-.6 0-1.3-.1-1.8-.2-1.3-.3-2.5-.8-3.7-1.4-1.3-.6-2.7-1.2-4.1-1.4-.4-.1-1-.3-1 .1s.8.4 1.1.5c1.8.5 3.4 1.3 5.1 2 1.3.6 2.7 1.1 4.2 1.1 1.7 0 2.3-.3 2.8-1.8.4-1.4 0-2.9-1.5-3.8-1.1-.6-2.9-1.2-4-1.7l-3.6-1.2s2.1-.4 3.4-1.1c1.2-.7 3.4-2.2 4-2.7.7-.4 1.3-.8 1.8-.7.6 0 .9.3.9 1 0 .3-.5.9-2.3 2-.3.2-2.1 1.2-2.2 1.7.7-.1 4.6-2.8 5-3.1.6-.4 1.8-1.4 2.2-1.5.5-.1 1.2.5 1.3.9.1.6-.8 1.6-1.7 2.4-.8.7-3 2.2-3.1 2.7.5.1 3.9-2.7 4.6-3.5.5-.6 1.4-1.8 2.2-1.9.7-.1 1.2.5 1.2 1 0 .8-2.2 3.4-2.5 3.8-.6.7-1.8 1.8-2.2 2.3 0 0-.2.3-.1.3.3.1.5-.1.5-.1.9-.8 1.9-1.7 3-3 1.3-1.5 2.3-2.5 3.2-1.7.6.5-.2 2.2-1 3.7-.6 1.1-1.2 2.1-2.1 3.3-.4.7-.2.6-.2.6s.3 0 .9-.6c.9-1 1-1.1 2.2-2.8.3-.4 1.2-1.9 1.2-2 1.5-3.5 2.1-7.1 1.6-10.9C38.5 6.4 27.9-1 16.8 1 7.8 2.6 1 9.1.1 18.3c-.3 3.5.1 7.5 1.6 10.8.5 1.8 3.6 5.1 3.6 5 .1 0 .1 0 0-.2-.3-.6-1.5-2.1-2.1-3.1-.7-1.3-.8-1.7-.8-1.7z" fill="#f48171"/><path d="M8.7 14.8L0 19.9C0 8.9 8.9.3 19.8 0 30.5-.3 40 8.6 40 19.6l-9.1-4.9c-6.9-4-15.4-4-22.2.1z" fill="#fcba5e"/></svg>